<?xml version="1.0" standalone="yes"?>
<svg xmlns="http://www.w3.org/2000/svg" width="512" height="512">
<path style="fill:#010101; stroke:none;" d="M0 0L0 335L1 335C2.78952 314.503 17.965 301.218 30.8302 287C54.1659 261.21 79.4062 236.594 104 212C119.121 196.879 132.929 180.546 154 174.025C201.997 159.172 248.108 199.397 245.961 248C244.9 272.011 229.617 287.709 214.039 304C194.73 324.194 173.914 343.284 155.17 364C137.795 383.202 119.003 406.482 94 415.564C55.8388 429.425 4.47056 402.491 1 360L0 360L0 512L512 512L512 156L511 156C508.202 190.261 470.651 219.033 437 215.83C414.843 213.722 396.168 201.675 377 191.309C353.8 178.762 330.437 166.355 307 154.258C275.277 137.885 240.018 119.972 239.015 79C237.931 34.7579 276.277 -1.99316 321 4.42825C338.22 6.90063 352.846 16.9199 368 24.7415C396.415 39.4077 425.144 53.8745 453 69.5756C478.436 83.9126 508.283 98.7312 511 132L512 132L512 0L0 0z"/>
<path style="fill:#febf5f; stroke:none;" d="M342 173L378.258 105L409 46C394.981 37.8174 380.19 31.005 366 23.1389C351.469 15.0841 336.003 5.26053 319 4.08951C263.256 0.250366 219.225 56.7992 246.89 109C259.428 132.659 283.361 142.572 306 154.258C317.955 160.43 329.573 167.826 342 173z"/>
<path style="fill:#f4edea; stroke:none;" d="M398 40L399 41L398 40z"/>
<path style="fill:#6bd0c5; stroke:none;" d="M409 46C385.188 86.7974 361.982 130.202 342 173C355.533 181.282 370.039 187.95 384 195.475C402.908 205.665 422.523 217.978 445 215.83C503.952 210.197 533.265 141.713 494.561 96.0008C484.701 84.3559 470.203 78.1855 457 71.2191C441.079 62.8184 425.391 53.45 409 46z"/>
<path style="fill:#febf5f; stroke:none;" d="M413 48L414 49L413 48z"/>
<path style="fill:#f4edea; stroke:none;" d="M434 59L435 60L434 59M271 135L272 136L271 135M295 148L296 149L295 148M329 166L330 167L329 166z"/>
<path style="fill:#6bd0c5; stroke:none;" d="M72 246C97.881 265.719 120.955 292.962 144 316L164 336C166.422 338.421 169.516 342.786 173 343.654C177.416 344.755 182.324 337.676 185 335C195.185 324.816 204.972 314.295 215.015 304C226.867 291.85 238.266 280.826 243.09 264C257.143 214.988 218.43 166.193 167 171.17C144.153 173.381 128.619 186.381 113 202C103.806 211.194 94.9348 220.615 85.9606 230C81.1301 235.052 74.9874 239.594 72 246z"/>
<path style="fill:#f4edea; stroke:none;" d="M346 175L347 176L346 175M367 186L368 187L367 186z"/>
<path style="fill:#febf5f; stroke:none;" d="M382 194L383 195L382 194M384 195L385 196L384 195z"/>
<path style="fill:#f4edea; stroke:none;" d="M486 199L487 200L486 199z"/>
<path style="fill:#febf5f; stroke:none;" d="M401 204L402 205L401 204M479 204L480 205L479 204z"/>
<path style="fill:#f4edea; stroke:none;" d="M474 207L475 208L474 207M472 208L473 209L472 208M462 212L463 213L462 212M422 213L423 214L422 213M454 214L455 215L454 214z"/>
<path style="fill:#ee5d5d; stroke:none;" d="M71 245C46.959 269.041 9.2735 296.517 1.25 330.996C-11.7641 386.921 44.9073 435.158 98 414.385C128.385 402.496 151.432 368.568 174 346L174 345L112 284L71 245z"/>
<path style="fill:#febf5f; stroke:none;" d="M74 247L75 248L74 247M75 248L76 249L75 248M76 249L77 250L76 249M77 250L78 251L77 250M78 251L79 252L78 251M79 252L80 253L79 252M80 253L81 254L80 253M81 254L82 255L81 254M82 255L83 256L82 255M59 257L60 258L59 257M58 258L59 259L58 258M56 260L57 261L56 260M54 262L55 263L54 262M53 263L54 264L53 263M52 264L53 265L52 264M50 266L51 267L50 266M49 267L50 268L49 267M48 268L49 269L48 268M47 269L48 270L47 269M46 270L47 271L46 270M45 271L46 272L45 271M43 273L44 274L43 273M42 274L43 275L42 274M41 275L42 276L41 275M40 276L41 277L40 276M35 281L36 282L35 281M16 301L17 302L16 301M133 305L134 306L133 305M135 307L136 308L135 307M136 308L137 309L136 308M10 309L11 310L10 309M137 309L138 310L137 309M138 310L139 311L138 310M9 311L10 312L9 311M139 311L140 312L139 311M140 312L141 313L140 312M7 314L8 315L7 314z"/>
<path style="fill:#f4edea; stroke:none;" d="M348 320.428C334.811 322.318 322.324 326.792 311 333.814C300.462 340.348 291.393 348.788 284.348 359C238.3 425.748 293.447 519.25 375 507.572C388.545 505.632 401.494 501.143 413 493.655C423.9 486.561 432.93 477.765 440.254 467C485.672 400.244 427.294 309.068 348 320.428z"/>
<path style="fill:#febf5f; stroke:none;" d="M4 321L5 322L4 321M3 324L4 325L3 324M0 336L1 337L0 336M0 359L1 360L0 359M1 364L2 365L1 364M150 369L151 370L150 369M149 370L150 371L149 370M3 371L4 372L3 371M4 373L5 374L4 373M146 373L147 374L146 373M326.019 373.786C314.084 377.771 326.854 389.854 331 394L379 442C383.24 446.24 390.729 457.07 397.891 454.242C408.793 449.939 395.813 437.813 392 434L345 387C340.818 382.818 333.011 371.452 326.019 373.786M144 375L145 376L144 375M5 376L6 377L5 376M6 378L7 379L6 378M8 382L9 383L8 382M11 387L12 388L11 387M12 388L13 389L12 388M14 391L15 392L14 391M15 392L16 393L15 392z"/>
<path style="fill:#6bd0c5; stroke:none;" d="M19 397L20 398L19 397z"/>
<path style="fill:#febf5f; stroke:none;" d="M20 398L21 399L20 398M31 407L32 408L31 407M36 410L37 411L36 410M91 416L92 417L91 416M82 418L83 419L82 418z"/>
</svg>
