<?xml version="1.0" standalone="no"?>
<!DOCTYPE svg PUBLIC "-//W3C//DTD SVG 20010904//EN"
 "http://www.w3.org/TR/2001/REC-SVG-20010904/DTD/svg10.dtd">
<svg version="1.0" xmlns="http://www.w3.org/2000/svg"
 width="512.000000pt" height="512.000000pt" viewBox="0 0 512.000000 512.000000"
 preserveAspectRatio="xMidYMid meet">

<g transform="translate(0.000000,512.000000) scale(0.100000,-0.100000)"
fill="#000000" stroke="none">
<path d="M4442 3515 l-122 -245 0 -395 0 -395 80 0 80 0 0 364 0 365 115 268
c63 147 115 271 115 275 0 5 -33 8 -73 8 l-72 0 -123 -245z"/>
<path d="M405 2773 c6 -34 315 -2508 315 -2523 0 -6 57 -10 161 -10 l160 0 -6
68 c-5 61 -155 2455 -155 2481 0 8 -69 11 -240 11 l-239 0 4 -27z"/>
<path d="M1365 2668 c7 -172 25 -725 25 -790 l0 -50 44 88 c75 150 176 251
323 327 l83 42 0 258 0 257 -241 0 -240 0 6 -132z"/>
<path d="M2320 2543 l0 -258 83 -42 c150 -77 246 -174 322 -327 l45 -88 0 50
c0 65 18 618 25 790 l6 132 -240 0 -241 0 0 -257z"/>
<path d="M3280 2789 c0 -26 -150 -2420 -155 -2481 l-6 -68 160 0 c108 0 161 4
161 11 0 20 120 974 127 1009 7 39 12 -3 79 -647 l39 -373 475 0 476 0 27 268
c15 147 36 346 47 442 10 96 21 214 25 262 3 48 17 196 30 330 14 134 25 255
25 271 l0 27 -715 0 -715 0 0 160 0 160 39 0 39 0 39 158 39 157 102 3 c74 2
102 6 102 15 0 16 28 241 35 280 l5 27 -240 0 c-171 0 -240 -3 -240 -11z"/>
<path d="M1411 1260 c0 -36 6 -256 14 -490 8 -234 15 -449 15 -477 l0 -53 200
0 200 0 0 338 0 337 -83 42 c-135 69 -243 174 -311 302 l-35 66 0 -65z"/>
<path d="M2713 1258 c-67 -128 -170 -229 -310 -301 l-83 -42 0 -337 0 -338
200 0 200 0 0 37 c0 20 7 252 16 515 8 263 14 489 12 503 -3 22 -8 16 -35 -37z"/>
</g>
</svg>
